<?xml version="1.0" standalone="no"?>
<!DOCTYPE svg PUBLIC "-//W3C//DTD SVG 20010904//EN"
 "http://www.w3.org/TR/2001/REC-SVG-20010904/DTD/svg10.dtd">
<svg version="1.0" xmlns="http://www.w3.org/2000/svg"
 width="354.000000pt" height="354.000000pt" viewBox="0 0 354.000000 354.000000"
 preserveAspectRatio="xMidYMid meet">
<metadata>
Created by potrace 1.11, written by Peter Selinger 2001-2013
</metadata>
<g transform="translate(0.000000,354.000000) scale(0.100000,-0.100000)"
fill="#000000" stroke="none">
<path d="M1635 2691 c-96 -23 -230 -71 -290 -104 l-43 -25 -89 19 c-146 30
-263 58 -351 85 -94 28 -104 26 -123 -35 -6 -20 -13 -145 -16 -287 l-5 -251
-112 28 c-121 29 -396 79 -437 79 -25 0 -26 -1 -18 -47 12 -82 39 -174 77
-266 l36 -89 60 4 c64 5 65 7 -6 -43 l-23 -17 59 -87 c61 -90 79 -106 99 -86
21 21 28 11 10 -16 l-17 -26 64 -60 c129 -119 274 -206 435 -262 65 -23 91
-39 140 -85 209 -197 448 -292 735 -292 213 -1 327 31 585 165 17 8 78 23 137
32 177 27 317 82 440 173 42 31 49 41 45 64 -4 31 -3 32 22 18 15 -8 30 3 85
59 36 38 66 72 66 75 0 4 -7 18 -16 31 -16 24 -16 24 19 18 33 -5 35 -3 74 58
43 69 86 151 97 185 6 20 1 22 -96 33 -56 6 -161 14 -235 18 -73 3 -133 8
-133 10 0 2 21 70 46 151 76 243 102 390 72 408 -6 4 -30 7 -52 6 -23 -2 -111
2 -196 7 l-155 10 -75 73 c-127 125 -258 201 -435 254 -123 36 -357 44 -480
15z m440 -79 c145 -40 252 -95 368 -189 37 -30 67 -58 67 -60 0 -3 -33 -2 -73
1 -91 9 -197 -12 -286 -55 -73 -36 -188 -144 -210 -196 -7 -18 -16 -33 -20
-33 -3 0 -15 28 -25 62 -25 78 -102 194 -169 253 -59 52 -162 108 -227 125
-75 19 -77 20 -60 30 27 17 171 62 243 76 98 18 299 11 392 -14z m-1124 -46
c74 -19 226 -53 339 -75 164 -34 220 -49 279 -78 200 -100 319 -333 281 -551
-60 -355 -439 -544 -762 -381 -75 38 -181 142 -220 215 -15 28 -34 77 -43 110
-35 135 -44 794 -10 794 1 0 63 -15 136 -34z m1609 -286 c52 -5 166 -12 252
-16 153 -7 157 -8 153 -28 -37 -177 -129 -474 -180 -581 -61 -127 -191 -223
-336 -246 -130 -21 -277 28 -373 124 -242 241 -140 638 189 743 48 15 165 17
295 4z m-2185 -186 c146 -25 346 -75 350 -88 1 -6 8 -65 14 -131 17 -191 75
-374 162 -518 21 -36 39 -68 39 -71 0 -11 -151 64 -221 109 -39 25 -95 69
-124 96 l-53 50 73 127 c41 70 72 128 70 130 -2 2 -41 -21 -87 -50 -45 -30
-99 -64 -120 -76 l-36 -22 -21 33 c-12 19 -21 36 -21 39 0 2 61 42 135 89 124
78 161 108 118 95 -43 -12 -335 -28 -344 -19 -9 9 -62 156 -73 205 -6 26 -4
27 21 23 16 -3 69 -12 118 -21z m1556 -490 l27 -52 -45 -56 c-25 -31 -48 -56
-52 -56 -5 0 -21 28 -36 62 -26 59 -27 62 -11 87 9 14 29 47 44 74 l27 47 10
-27 c5 -16 22 -51 36 -79z m1262 69 c42 -3 77 -10 77 -14 0 -7 -49 -93 -66
-117 -1 -2 -55 11 -119 28 -64 17 -119 30 -121 27 -2 -2 30 -43 72 -92 l75
-88 -26 -28 -27 -27 -61 38 c-34 22 -63 37 -65 35 -3 -2 1 -41 8 -86 11 -81
11 -83 -12 -101 -49 -38 -178 -98 -262 -122 -136 -40 -140 -37 -64 42 113 118
183 236 238 407 18 55 35 104 38 109 5 8 131 4 315 -11z m-2237 -193 c204
-169 533 -174 738 -11 21 17 42 31 46 31 3 0 26 -45 50 -100 25 -55 47 -100
51 -100 4 0 41 43 84 95 42 52 79 95 82 95 3 0 24 -17 48 -38 160 -141 417
-159 606 -43 l48 30 -30 -51 c-132 -223 -353 -390 -609 -459 -72 -20 -109 -23
-250 -23 -141 0 -178 3 -250 23 -256 69 -459 222 -599 453 -37 61 -74 138 -67
138 2 0 26 -18 52 -40z"/>
<path d="M1494 2071 c-106 -48 -131 -193 -48 -277 32 -31 86 -54 129 -54 11 0
39 9 61 19 111 51 138 196 51 278 -57 54 -123 66 -193 34z"/>
<path d="M2163 1959 c-70 -34 -105 -115 -83 -186 24 -73 79 -113 157 -113 142
0 209 164 110 268 -51 53 -117 64 -184 31z"/>
</g>
</svg>
