<?xml version="1.0" encoding="utf-8"?>
<!-- Generator: Adobe Illustrator 22.1.0, SVG Export Plug-In . SVG Version: 6.00 Build 0)  -->
<svg version="1.1" id="Layer_1" xmlns="http://www.w3.org/2000/svg" xmlns:xlink="http://www.w3.org/1999/xlink" x="0px" y="0px"
	 viewBox="0 0 734 193" enable-background="new 0 0 734 193" xml:space="preserve">
<path fill="#F8F8FF" d="M166.6,181.1c-13.4,0-26.8-2.8-38.8-8c-11.9-5.2-22.5-12.9-31.4-22.8c-19.5-5.5-35.9-15.4-49-29.4l-1.4-1.5
	l-0.1,0.1l-1.2-1.5l-0.6-0.7l0-0.1l-2-2.4c-3.1-3.8-5.9-7.9-8.5-12.2l-3.4-5.6l0.1-0.1l-1.7-3.6c-7.9-16.4-9.6-29.7-9.6-30.2
	l-1.1-8.7l8.7,1.2c14.2,1.9,28.3,4.6,41.8,8.1c-0.4-13.6-0.3-24.7,0.3-33.1c0.5-6.8,1.5-11.6,2.7-13.8c1.2-2.2,3.4-3.5,5.9-3.5
	c0.9,0,1.8,0.2,2.7,0.6c0,0,8.9,3.5,41.3,10.1l1.5-0.8c13.7-7.6,30.9-12.1,45.9-12.1c26.5,0,51.5,11.5,68.7,31.6
	c13.5,1,21.6,1.2,26,1.2c3.4,0,4.7-0.1,4.7-0.1c0.2,0,0.5,0,0.7,0c3.1,0,5.9,2.2,6.6,5.3c0.7,3.2,0.2,13.1-10.2,44.2
	c10.8,0.4,21.7,1.2,32.5,2.5l8.7,1l-3.2,8.1c-0.1,0.3-3.3,8.4-10.6,18.6l-1.8,2.6l0.1,0.1l-0.8,1l-0.2,0.3l0,0l-2.6,3.1
	c-3,3.7-5.1,6.1-8.9,9.6l-3.3,3.1l0,0.1l-3,2.5c-13.9,11.5-29.3,17.3-52.8,19.7C203.5,175.7,185.4,181.1,166.6,181.1z"/>
<path fill="#F8F8FF" d="M339.6,150.3c-0.2,0-0.4,0-0.6,0l10.6-46c0-0.2,0-0.4,0-0.6l-15-60.8h19.8l7.6,41.8c0.1,0.5,0.5,1,1,1.1
	c0.1,0,0.2,0,0.3,0c0.4,0,0.9-0.2,1.1-0.6l26.9-42.3h20.3l-43.8,61.3c-0.1,0.1-0.2,0.3-0.2,0.5l-7.1,30.2
	C357.4,148.8,344.8,150.3,339.6,150.3z"/>
<g>
	<circle fill="#F5564E" cx="144.7" cy="83.4" r="14.8"/>
</g>
<g>
	<circle fill="#F5564E" cx="202.2" cy="91.9" r="13.7"/>
</g>
<path fill="#F5564E" d="M297.1,99.4c-12.5-1.5-25-2.4-37.2-2.6c12.8-37.2,12-45.6,11.7-47c-0.3-1.5-1.8-2.5-3.3-2.3
	c-0.1,0-7.2,0.8-33-1.2c-16.5-20-40.8-31.5-66.8-31.5c-14.4,0-30.9,4.3-44.1,11.6l-2.7,1.5c-34.5-7-43.3-10.6-43.4-10.6
	c-1.4-0.6-3.1,0-3.8,1.3c-0.3,0.6-1.5,3.3-2.2,12.3c-0.7,9.2-0.8,21.9-0.1,37.7c-14.8-4-30.4-7.1-46.2-9.2l-3.8-0.5l0.5,3.8
	c0.1,0.5,1.7,13.2,9.3,29.1l0.9,1.9l11.4-1l-8.9,5.7l1.5,2.5c2.5,4.1,5.2,8.1,8.2,11.8l1.7,2.1l5.2-3.3l-3.2,5.5l1.5,1.6
	c12.8,13.7,29.1,23.3,48.3,28.6l0,0c8.7,9.8,19.2,17.6,30.9,22.7c11.6,5.1,24.5,7.7,37.3,7.7c18.8,0,36.4-5.7,51.2-15.6
	c23.2-2.3,38.2-7.8,51.7-18.9l1.3-1.1l-0.9-5.4l3.9,2.5l1.7-1.6c3.6-3.4,5.7-5.7,8.6-9.3l1.6-1.9l-4.3-5l6.6,1.8l1.2-1.7
	c7-9.9,10.1-17.5,10.2-17.9l1.4-3.6L297.1,99.4z M265.6,53.5c-0.5,4.9-3.1,18-14,48.6c-3.5,9.7-10.5,17.5-19.8,21.9
	c-9.3,4.4-19.8,4.9-29.5,1.5c-9.7-3.5-17.5-10.5-21.9-19.8c-4.4-9.3-4.9-19.8-1.5-29.5c5.4-15.1,19.7-25.4,35.8-25.6
	c0.2,0,0.4,0,0.5,0c0.8,0,1.7,0,2.5,0.1c0,0,0.1,0,0.1,0C246.6,53.4,260.1,53.6,265.6,53.5z M172.2,100c0.7,2.8,1.7,5.5,3,8.2
	c1,2.2,2.3,4.3,3.6,6.3l-9,11.2l-5.5-12.2C167.5,109.4,170.2,104.9,172.2,100z M168.6,20.7c22.2,0,43,9,58.2,24.8
	c-2.5-0.2-5.1-0.5-7.9-0.7c-0.1,0-0.2,0-0.3,0c-1.3-0.1-2.6-0.1-3.9-0.1c-17.2,0.2-32.8,10.6-39.8,26c-3.7-18.3-17.3-33.6-35.4-39.1
	c-1.4-0.4-2.9-0.8-4.4-1.1c-0.1,0-0.2,0-0.3,0c-1.3-0.2-2.5-0.5-3.7-0.7C142.6,24,156.6,20.7,168.6,20.7z M79.2,23.8
	c5.8,1.9,20.8,6,54.9,12.5c0.1,0,0.1,0,0.1,0c1.2,0.3,2.4,0.6,3.5,0.9c18.1,5.5,31,22,32.1,40.8c0.7,12.1-3.3,23.8-11.4,33
	c-8.1,9.1-19.2,14.5-31.4,15.2c-25.1,1.5-46.7-17.7-48.2-42.7C76.6,44.3,78.1,29.1,79.2,23.8z M55.9,115.8l13.2-22.8l-21.3,13.5
	c-1.6-2.1-3.1-4.3-4.6-6.5L68,84.3l-31.6,2.8c-4.1-9.1-6.2-17-7.2-21.4c14.9,2.2,29.4,5.2,43.2,9c0.1,3,0.3,6.1,0.5,9.2
	c0.1,1,0.2,1.9,0.3,2.9l0,0c1.5,17.7,7.3,34.6,16.8,49.1c0.6,0.9,1.2,1.8,1.8,2.7C77.9,133.5,65.9,125.9,55.9,115.8z M131.7,164.1
	c-14.7-6.4-27.4-17.3-36.7-31.5c-3.6-5.5-6.6-11.4-9.1-17.5c1.3,1.5,2.7,2.9,4.3,4.3c9.5,8.4,21.5,13,34.1,13c1,0,2.1,0,3.2-0.1
	c12.6-0.8,23.8-6,32.3-14.1l8.5,18.8l14.3-17.7c4.8,5.3,10.9,9.3,17.8,11.8c4.9,1.7,9.9,2.6,15,2.6c6.5,0,13-1.4,19.1-4.3
	c3.4-1.6,6.5-3.6,9.3-5.9c-14.3,28.9-43.9,47.9-77.1,47.9C154.6,171.3,142.5,168.8,131.7,164.1z M285.7,116.1l-21.5-5.9l13.8,16
	c-1.6,1.8-3,3.4-4.8,5.2l-11.3-7.3l2.5,15.2c-10.1,8-21.4,12.7-37.1,15.2c13.5-11.8,23.6-27.6,28.4-45.9l0.7-2
	c0.4-0.8,0.7-1.7,1-2.5c0.2-0.5,0.3-1,0.5-1.4c11.3,0.2,22.9,0.9,34.5,2.2C291,107.5,288.8,111.5,285.7,116.1z"/>
<path fill="#F8F8FF" d="M408.6,152.9c-7.6,0-13.2-2.6-16.8-7.7c-3.6-5.2-5.4-12.3-5.4-21c0-12.2,3.1-24.1,9.3-35.4
	c3.1-5.6,7.3-10.2,12.7-13.8c5.4-3.6,11.5-5.4,18.4-5.4c7.4,0,18.4,1.3,32.9,3.9l6.8,1.3l-12,51.6l-4.3,24.9l-20.2,0.1
	c0.9-6.1,1.6-10.1,2-11.8c0.1-0.3-0.1-0.6-0.4-0.8c-0.1,0-0.2-0.1-0.3-0.1c-0.2,0-0.4,0.1-0.5,0.3c-4.3,5.8-9.5,10-15.2,12.4
	C413.2,152.4,410.8,152.9,408.6,152.9z M427.5,86.7c-4.3,0-8.1,2.2-11.4,6.6c-6,8.1-9,18.5-9,31c0,3.9,0.6,6.8,1.9,8.7
	c1.3,2,3.4,3,6.1,3c2.7,0,5.7-1.2,9-3.7c3.2-2.4,5.9-4.8,8.1-7.2l3.2-3.7c0.1-0.1,0.1-0.2,0.1-0.3l7.4-31.2c0-0.2,0-0.4-0.1-0.5
	c-0.1-0.2-0.2-0.3-0.4-0.3C435.3,87.4,430.3,86.7,427.5,86.7z"/>
<path fill="#F8F8FF" d="M503,152.1c-5.1,0-11-0.4-17.4-1.3c-6.5-0.8-11.8-1.8-15.7-2.7l-4.7-1l21-93.5c0.1-0.3,0-0.7-0.2-1
	c-2-6.8-2.6-10.2-2.8-11.8c0.8,0,2.1,0.1,3.9,0.1c2.2,0,4.9-0.1,8-0.2c0,0,0.1,0,0.1,0c0.2,0,0.4,0,0.6,0c3.9,0.3,7.3,3,8.4,6.8
	c0.1,0.5,0.3,1,0.3,1.5c0,0.1,0.6,4.6,0,7.6l-4.3,20.3c-0.1,0.6,0.1,1.1,0.6,1.4c0.2,0.1,0.4,0.2,0.7,0.2c0.3,0,0.6-0.1,0.9-0.3
	c2.4-2.1,5.4-3.9,9-5.5c3.5-1.6,6.7-2.4,9.4-2.4c8.2,0,14.2,2.3,17.6,7c3.5,4.8,5.3,10.8,5.3,18c0,16.6-3.7,30.4-11.1,41
	C525.4,146.8,515.5,152.1,503,152.1z M496.6,94.3c-0.3,0.2-0.5,0.5-0.5,0.8l-8.7,38c-0.1,0.3,0,0.7,0.2,1c0.2,0.3,0.5,0.5,0.8,0.6
	c4.8,1.1,9.3,1.6,13.5,1.6c4.4,0,8.1-1.5,11.2-4.4c2.9-2.8,5.2-6.4,6.8-10.7c3-8.4,4.4-16.3,4.4-23.4c0-9.8-5.4-11.8-9.9-11.8
	c-2.3,0-5,0.7-8,2.2c-2.9,1.4-5.2,2.8-7,4.3L496.6,94.3z"/>
<path fill="#F8F8FF" d="M650.5,152.3c-12.4,0-18.4-7-18.4-21.5c0-4.1,1.1-10.8,3.4-20.1l8.8-38.6h18.9l-8.4,36.4
	c-2,8.2-2.9,13.8-2.9,17.1c0,3.4,0.5,5.9,1.6,7.6c0.8,1.3,2.4,2.9,5.6,2.9c4,0,8.8-2.5,14.5-7.6l2.6-2.4c0.2-0.2,0.3-0.4,0.4-0.7
	l12.2-53.3h18.9l-18,78.2h-18.1l0.8-6.4c0.1-0.6-0.2-1.1-0.7-1.4c-0.2-0.1-0.4-0.1-0.6-0.1c-0.3,0-0.7,0.1-0.9,0.4
	c-2.4,2.4-5.5,4.6-9.4,6.5C656.8,151.3,653.4,152.3,650.5,152.3z"/>
<path fill="#F8F8FF" d="M584.2,152.1c-5.1,0-11-0.4-17.5-1.3c-6.5-0.8-11.8-1.8-15.7-2.7l-4.7-1l21-93.5c0.1-0.3,0-0.7-0.2-1
	c-2-6.8-2.6-10.2-2.8-11.8c0.8,0,2.1,0.1,3.9,0.1c2.2,0,4.9-0.1,8-0.2c0,0,0.1,0,0.1,0c0.2,0,0.4,0,0.6,0c3.9,0.3,7.3,3,8.4,6.8
	c0.1,0.5,0.3,1,0.3,1.5c0,0.1,0.6,4.6,0,7.6l-4.3,20.3c-0.1,0.6,0.1,1.1,0.6,1.4c0.2,0.1,0.4,0.2,0.7,0.2c0.3,0,0.6-0.1,0.9-0.3
	c2.4-2.1,5.4-3.9,9-5.5c3.5-1.6,6.7-2.4,9.4-2.4c8.2,0,14.2,2.3,17.6,7c3.5,4.8,5.3,10.8,5.3,18c0,16.6-3.7,30.4-11.1,41
	C606.6,146.8,596.6,152.1,584.2,152.1z M577.8,94.3c-0.3,0.2-0.5,0.5-0.5,0.8l-8.7,38c-0.1,0.3,0,0.7,0.2,1c0.2,0.3,0.5,0.5,0.8,0.6
	c4.8,1.1,9.3,1.6,13.5,1.6c4.4,0,8.1-1.5,11.2-4.4c2.9-2.8,5.2-6.4,6.8-10.7c3-8.4,4.4-16.3,4.4-23.4c0-9.8-5.4-11.8-9.9-11.8
	c-2.3,0-5,0.7-8,2.2c-2.9,1.4-5.2,2.8-7,4.3L577.8,94.3z"/>
</svg>
